# xmcd
#
# Track frame offsets:
#	150
#	13441
#	26733
#	40457
#	54137
#	68961
#	84302
#	97975
#	112702
#	126040
#	139066
#	153838
#	166047
#	179677
#	192608
#	207016
#	220791
#	235395
#	250056
#	263101
#
# Disc length: 3674 seconds
#
# Revision: 0
# Processed by: cddbd v1.5.1PL0 Copyright (c) Steve Scherf et al.
# Submitted via: dBpowerAMP V4.0
#
DISCID=100e5814
DTITLE=blind alfred reed - complete recorded works 1927-29 document
DYEAR=1900
DGENRE=old time
TTITLE0=the wreck of the virginia
TTITLE1=i mean to live for jesus
TTITLE2=you must unload
TTITLE3=walking in the way with jesus
TTITLE4=explosion in the fairmount mines
TTITLE5=fate of chris lively and wife
TTITLE6=why do you bob your hair, girls
TTITLE7=always lift him up and never knock him down
TTITLE8=the prayer of the drunkard's little girl
TTITLE9=the telephone girl
TTITLE10=woman's been after man ever since
TTITLE11=why don't you bob your hair girls no 2
TTITLE12=there'll be no distinction there
TTITLE13=we've got to have 'em that's all
TTITLE14=beware
TTITLE15=the old fashioned cottage
TTITLE16=how can a poor man stand such times and live
TTITLE17=black and blue blues
TTITLE18=you'll miss me
TTITLE19=money cravin folks
EXTD=
EXTT0=
EXTT1=
EXTT2=
EXTT3=
EXTT4=
EXTT5=
EXTT6=
EXTT7=
EXTT8=
EXTT9=
EXTT10=
EXTT11=
EXTT12=
EXTT13=
EXTT14=
EXTT15=
EXTT16=
EXTT17=
EXTT18=
EXTT19=
PLAYORDER=
